<?xml version="1.0" encoding="us-ascii" standalone="no"?><svg xmlns="http://www.w3.org/2000/svg" xmlns:xlink="http://www.w3.org/1999/xlink" contentStyleType="text/css" height="573px" preserveAspectRatio="none" style="width:758px;height:573px;background:#FFFFFF;" version="1.1" viewBox="0 0 758 573" width="758px" zoomAndPan="magnify"><defs/><g><!--cluster Broker1--><g id="cluster_Broker1"><polygon fill="none" points="16,149.0986,26,139.0986,171,139.0986,171,359.0986,161,369.0986,16,369.0986,16,149.0986" style="stroke:#181818;stroke-width:1.0;"/><line style="stroke:#181818;stroke-width:1.0;" x1="161" x2="171" y1="149.0986" y2="139.0986"/><line style="stroke:#181818;stroke-width:1.0;" x1="16" x2="161" y1="149.0986" y2="149.0986"/><line style="stroke:#181818;stroke-width:1.0;" x1="161" x2="161" y1="149.0986" y2="369.0986"/><text fill="#000000" font-family="sans-serif" font-size="14" font-weight="bold" lengthAdjust="spacing" textLength="63" x="58" y="165.0938">Broker1</text></g><!--cluster Broker2--><g id="cluster_Broker2"><polygon fill="none" points="483,52.0986,493,42.0986,616,42.0986,616,195.0986,606,205.0986,483,205.0986,483,52.0986" style="stroke:#181818;stroke-width:1.0;"/><line style="stroke:#181818;stroke-width:1.0;" x1="606" x2="616" y1="52.0986" y2="42.0986"/><line style="stroke:#181818;stroke-width:1.0;" x1="483" x2="606" y1="52.0986" y2="52.0986"/><line style="stroke:#181818;stroke-width:1.0;" x1="606" x2="606" y1="52.0986" y2="205.0986"/><text fill="#000000" font-family="sans-serif" font-size="14" font-weight="bold" lengthAdjust="spacing" textLength="63" x="514" y="68.0938">Broker2</text></g><!--cluster Map1A--><g id="cluster_Map1A"><path d="M195,464.5986 C195,454.5986 275,454.5986 275,454.5986 C275,454.5986 355,454.5986 355,464.5986 L355,546.5986 C355,556.5986 275,556.5986 275,556.5986 C275,556.5986 195,556.5986 195,546.5986 L195,464.5986 " fill="none" style="stroke:#181818;stroke-width:1.0;"/><path d="M195,464.5986 C195,474.5986 275,474.5986 275,474.5986 C275,474.5986 355,474.5986 355,464.5986 " fill="none" style="stroke:#181818;stroke-width:1.0;"/><text fill="#000000" font-family="sans-serif" font-size="14" font-weight="bold" lengthAdjust="spacing" textLength="84" x="233" y="489.5938">Map RDV 1</text></g><!--cluster Map2A--><g id="cluster_Map2A"><path d="M577,311.0986 C577,301.0986 659,301.0986 659,301.0986 C659,301.0986 741,301.0986 741,311.0986 L741,393.0986 C741,403.0986 659,403.0986 659,403.0986 C659,403.0986 577,403.0986 577,393.0986 L577,311.0986 " fill="none" style="stroke:#181818;stroke-width:1.0;"/><path d="M577,311.0986 C577,321.0986 659,321.0986 659,321.0986 C659,321.0986 741,321.0986 741,311.0986 " fill="none" style="stroke:#181818;stroke-width:1.0;"/><text fill="#000000" font-family="sans-serif" font-size="14" font-weight="bold" lengthAdjust="spacing" textLength="84" x="617" y="336.0938">Map RDV 2</text></g><text fill="#000000" font-family="sans-serif" font-size="14" lengthAdjust="spacing" textLength="47" x="129.5" y="117.7969">accept</text><rect fill="#F1F1F1" height="12" style="stroke:#181818;stroke-width:1.5;" width="12" x="147" y="133.0986"/><text fill="#000000" font-family="sans-serif" font-size="14" lengthAdjust="spacing" textLength="57" x="74" y="388.0938">connect</text><rect fill="#F1F1F1" height="12" style="stroke:#181818;stroke-width:1.5;" width="12" x="96.5" y="363.0986"/><text fill="#000000" font-family="sans-serif" font-size="14" lengthAdjust="spacing" textLength="47" x="571.5" y="20.7969">accept</text><rect fill="#F1F1F1" height="12" style="stroke:#181818;stroke-width:1.5;" width="12" x="589" y="36.0986"/><text fill="#000000" font-family="sans-serif" font-size="14" lengthAdjust="spacing" textLength="57" x="541" y="224.0938">connect</text><rect fill="#F1F1F1" height="12" style="stroke:#181818;stroke-width:1.5;" width="12" x="563.5" y="199.0986"/><!--entity collections1N--><g id="elem_collections1N"><rect fill="#F1F1F1" height="32.2969" rx="2.5" ry="2.5" style="stroke:#181818;stroke-width:0.5;" width="57" x="281.5" y="508.5986"/><rect fill="#F1F1F1" height="32.2969" rx="2.5" ry="2.5" style="stroke:#181818;stroke-width:0.5;" width="57" x="277.5" y="504.5986"/><text fill="#000000" font-family="sans-serif" font-size="14" lengthAdjust="spacing" textLength="41" x="285.5" y="525.5938">Port n</text></g><!--entity collections1P--><g id="elem_collections1P"><rect fill="#F1F1F1" height="32.2969" rx="2.5" ry="2.5" style="stroke:#181818;stroke-width:0.5;" width="57" x="215.5" y="508.5986"/><rect fill="#F1F1F1" height="32.2969" rx="2.5" ry="2.5" style="stroke:#181818;stroke-width:0.5;" width="57" x="211.5" y="504.5986"/><text fill="#000000" font-family="sans-serif" font-size="14" lengthAdjust="spacing" textLength="41" x="219.5" y="525.5938">Port p</text></g><!--entity collections2M--><g id="elem_collections2M"><rect fill="#F1F1F1" height="32.2969" rx="2.5" ry="2.5" style="stroke:#181818;stroke-width:0.5;" width="61" x="663.5" y="355.0986"/><rect fill="#F1F1F1" height="32.2969" rx="2.5" ry="2.5" style="stroke:#181818;stroke-width:0.5;" width="61" x="659.5" y="351.0986"/><text fill="#000000" font-family="sans-serif" font-size="14" lengthAdjust="spacing" textLength="45" x="667.5" y="372.0938">Port m</text></g><!--entity collections2N--><g id="elem_collections2N"><rect fill="#F1F1F1" height="32.2969" rx="2.5" ry="2.5" style="stroke:#181818;stroke-width:0.5;" width="57" x="597.5" y="355.0986"/><rect fill="#F1F1F1" height="32.2969" rx="2.5" ry="2.5" style="stroke:#181818;stroke-width:0.5;" width="57" x="593.5" y="351.0986"/><text fill="#000000" font-family="sans-serif" font-size="14" lengthAdjust="spacing" textLength="41" x="601.5" y="372.0938">Port n</text></g><!--entity Annuaire--><g id="elem_Annuaire"><path d="M434.5,356.5986 C434.5,346.5986 475,346.5986 475,346.5986 C475,346.5986 515.5,346.5986 515.5,356.5986 L515.5,381.8955 C515.5,391.8955 475,391.8955 475,391.8955 C475,391.8955 434.5,391.8955 434.5,381.8955 L434.5,356.5986 " fill="#F1F1F1" style="stroke:#181818;stroke-width:0.5;"/><path d="M434.5,356.5986 C434.5,366.5986 475,366.5986 475,366.5986 C475,366.5986 515.5,366.5986 515.5,356.5986 " fill="none" style="stroke:#181818;stroke-width:0.5;"/><text fill="#000000" font-family="sans-serif" font-size="14" lengthAdjust="spacing" textLength="61" x="444.5" y="383.5938">Annuaire</text></g><!--link accept1 to collections1P--><g id="link_accept1_collections1P"><path d="M154.99,145.2686 C160.76,160.4186 177.73,206.0786 188,245.0986 C213.52,342.0686 231.8819,455.1078 238.5519,498.6678 " fill="none" id="accept1-to-collections1P" style="stroke:#181818;stroke-width:1.0;"/><polygon fill="#181818" points="239.46,504.5986,242.0517,495.0969,238.7032,499.6562,234.1439,496.3078,239.46,504.5986" style="stroke:#181818;stroke-width:1.0;"/><text fill="#000000" font-family="sans-serif" font-size="13" lengthAdjust="spacing" textLength="49" x="199" y="269.6655">t&#226;che A</text></g><!--link accept1 to collections1N--><g id="link_accept1_collections1N"><path d="M159.01,144.0186 C177.35,156.3486 232.78,196.3886 257,245.0986 C301.77,335.1386 307.4381,453.3091 307.9781,498.3791 " fill="none" id="accept1-to-collections1N" style="stroke:#181818;stroke-width:1.0;"/><polygon fill="#181818" points="308.05,504.3786,311.9419,495.3314,307.9901,499.379,303.9425,495.4272,308.05,504.3786" style="stroke:#181818;stroke-width:1.0;"/><text fill="#000000" font-family="sans-serif" font-size="13" lengthAdjust="spacing" textLength="49" x="275" y="269.6655">t&#226;che B</text></g><!--link connect1 to collections1P--><g id="link_connect1_collections1P"><path d="M107.49,375.0986 C117.68,386.4386 143.33,414.9486 165,438.5986 C185.98,461.4986 206.2967,483.3618 221.9167,500.1018 " fill="none" id="connect1-to-collections1P" style="stroke:#181818;stroke-width:1.0;"/><polygon fill="#181818" points="226.01,504.4886,222.7945,495.1795,222.5989,500.8329,216.9454,500.6373,226.01,504.4886" style="stroke:#181818;stroke-width:1.0;"/><text fill="#000000" font-family="sans-serif" font-size="13" lengthAdjust="spacing" textLength="49" x="166" y="434.6655">t&#226;che C</text></g><!--link connect1 to collections1P--><g id="link_connect1_collections1P"><path d="M99.84,375.1486 C92.83,387.0786 77.52,417.5686 90,438.5986 C116.16,482.6886 169.1109,503.2918 205.4209,513.1818 " fill="none" id="connect1-to-collections1P-1" style="stroke:#181818;stroke-width:1.0;"/><polygon fill="#181818" points="211.21,514.7586,203.5776,508.534,206.3858,513.4446,201.4751,516.2528,211.21,514.7586" style="stroke:#181818;stroke-width:1.0;"/><text fill="#000000" font-family="sans-serif" font-size="13" lengthAdjust="spacing" textLength="50" x="91" y="434.6655">t&#226;che D</text></g><!--link accept2 to collections2M--><g id="link_accept2_collections2M"><path d="M601.2,48.1286 C613.75,58.6786 642.03,84.5386 655,113.0986 C692.74,196.1886 693.9887,302.7807 692.8687,345.1007 " fill="none" id="accept2-to-collections2M" style="stroke:#181818;stroke-width:1.0;"/><polygon fill="#181818" points="692.71,351.0986,696.9467,342.2076,692.8423,346.1004,688.9495,341.996,692.71,351.0986" style="stroke:#181818;stroke-width:1.0;"/><text fill="#000000" font-family="sans-serif" font-size="13" lengthAdjust="spacing" textLength="48" x="672" y="143.6655">t&#226;che K</text></g><!--link connect2 to collections2N--><g id="link_connect2_collections2N"><path d="M571.68,211.1286 C578.72,232.2686 604.2722,308.9167 616.3522,345.1467 " fill="none" id="connect2-to-collections2N" style="stroke:#181818;stroke-width:1.0;"/><polygon fill="#181818" points="618.25,350.8386,619.1979,341.0355,616.6685,346.0953,611.6086,343.5659,618.25,350.8386" style="stroke:#181818;stroke-width:1.0;"/><text fill="#000000" font-family="sans-serif" font-size="13" lengthAdjust="spacing" textLength="47" x="596" y="269.6655">t&#226;che L</text></g><!--link connect2 to Annuaire--><g id="link_connect2_Annuaire"><path d="M563.49,209.8186 C553.31,215.9486 533.59,229.0986 522,245.0986 C499.21,276.5786 487.3819,314.6595 481.0519,340.6095 " fill="none" id="connect2-to-Annuaire" style="stroke:#181818;stroke-width:1.0;"/><polygon fill="#181818" points="479.63,346.4386,485.6489,338.6429,480.8149,341.5811,477.8768,336.7471,479.63,346.4386" style="stroke:#181818;stroke-width:1.0;"/><text fill="#000000" font-family="sans-serif" font-size="13" lengthAdjust="spacing" textLength="51" x="523" y="269.6655">t&#226;che M</text></g><!--link Annuaire to collections1N--><g id="link_Annuaire_collections1N"><path d="M451.07,391.8086 C417.7,422.0786 362.2943,472.3477 331.6543,500.1377 " fill="none" id="Annuaire-to-collections1N" style="stroke:#181818;stroke-width:1.0;"/><polygon fill="#181818" points="327.21,504.1686,336.5637,501.0851,330.9136,500.8095,331.1892,495.1594,327.21,504.1686" style="stroke:#181818;stroke-width:1.0;"/><text fill="#000000" font-family="sans-serif" font-size="13" lengthAdjust="spacing" textLength="51" x="418" y="434.6655">t&#226;che M</text></g><!--SRC=[ZP4x3i8m44JxFSNAFKMsf43Yqq6YY8BU64j4m3fAJ8Mu35VXObYGsFb0Wgkn_JIpesLpqBWep4aN4SeIHQK5tW3ToKrXCqQfbCxjX_XeuR_DrQ8op5fLG7KHS0VWu4yDV_hgJsF-rFC_I2ltijGOopoQlx-TmkrgXxw3CkUpupF3PLD7oHjFNGIo62JJGEQzM6h7qaWinS7iCXXBxG6RiNFcgymA3L1lPZAPTKQUedq-rD71Fw4aG0lmEnomMlv5hUgng4kvyfvQWzzgbshCjO4sLZSFH0p-RQ1V32y0]--></g></svg>