<?xml version="1.0" encoding="us-ascii" standalone="no"?><svg xmlns="http://www.w3.org/2000/svg" xmlns:xlink="http://www.w3.org/1999/xlink" contentStyleType="text/css" height="399px" preserveAspectRatio="none" style="width:758px;height:399px;background:#FFFFFF;" version="1.1" viewBox="0 0 758 399" width="758px" zoomAndPan="magnify"><defs/><g><!--cluster Accept_channel--><g id="cluster_Accept_channel"><polygon fill="none" points="145,16,155,6,741,6,741,148,731,158,145,158,145,16" style="stroke:#181818;stroke-width:1.0;"/><line style="stroke:#181818;stroke-width:1.0;" x1="731" x2="741" y1="16" y2="6"/><line style="stroke:#181818;stroke-width:1.0;" x1="145" x2="731" y1="16" y2="16"/><line style="stroke:#181818;stroke-width:1.0;" x1="731" x2="731" y1="16" y2="158"/><text fill="#000000" font-family="sans-serif" font-size="14" font-weight="bold" lengthAdjust="spacing" textLength="124" x="377" y="31.9951">Channel Accept</text></g><!--cluster Connect_channel--><g id="cluster_Connect_channel"><polygon fill="none" points="16,230,26,220,585,220,585,362,575,372,16,372,16,230" style="stroke:#181818;stroke-width:1.0;"/><line style="stroke:#181818;stroke-width:1.0;" x1="575" x2="585" y1="230" y2="220"/><line style="stroke:#181818;stroke-width:1.0;" x1="16" x2="575" y1="230" y2="230"/><line style="stroke:#181818;stroke-width:1.0;" x1="575" x2="575" y1="230" y2="372"/><text fill="#000000" font-family="sans-serif" font-size="14" font-weight="bold" lengthAdjust="spacing" textLength="135" x="229" y="245.9951">Channel Connect</text></g><text fill="#000000" font-family="sans-serif" font-size="14" lengthAdjust="spacing" textLength="31" x="228.5" y="176.9951">read</text><rect fill="#F1F1F1" height="12" style="stroke:#181818;stroke-width:1.5;" width="12" x="238" y="152"/><text fill="#000000" font-family="sans-serif" font-size="14" lengthAdjust="spacing" textLength="33" x="274.5" y="176.9951">write</text><rect fill="#F1F1F1" height="12" style="stroke:#181818;stroke-width:1.5;" width="12" x="285" y="152"/><text fill="#000000" font-family="sans-serif" font-size="14" lengthAdjust="spacing" textLength="77" x="524.5" y="176.9951">disconnect</text><rect fill="#F1F1F1" height="12" style="stroke:#181818;stroke-width:1.5;" width="12" x="557" y="152"/><text fill="#000000" font-family="sans-serif" font-size="14" lengthAdjust="spacing" textLength="95" x="420" y="176.9951">disconnected</text><rect fill="#F1F1F1" height="12" style="stroke:#181818;stroke-width:1.5;" width="12" x="461.5" y="152"/><!--entity buffer_circulaireA_IN--><g id="elem_buffer_circulaireA_IN"><rect fill="#F1F1F1" height="46.2969" rx="2.5" ry="2.5" style="stroke:#181818;stroke-width:0.5;" width="165" x="161.5" y="28"/><rect fill="#F1F1F1" height="10" style="stroke:#181818;stroke-width:0.5;" width="15" x="306.5" y="33"/><rect fill="#F1F1F1" height="2" style="stroke:#181818;stroke-width:0.5;" width="4" x="304.5" y="35"/><rect fill="#F1F1F1" height="2" style="stroke:#181818;stroke-width:0.5;" width="4" x="304.5" y="39"/><text fill="#000000" font-family="sans-serif" font-size="14" lengthAdjust="spacing" textLength="125" x="176.5" y="60.9951">buffer_circulaire IN</text></g><!--entity is_disconnectedA--><g id="elem_is_disconnectedA"><ellipse cx="661" cy="51" fill="#F1F1F1" rx="8" ry="8" style="stroke:#181818;stroke-width:0.5;"/><text fill="#000000" font-family="sans-serif" font-size="14" lengthAdjust="spacing" textLength="113" x="604.5" y="80.9951">is_disconnected</text></g><text fill="#000000" font-family="sans-serif" font-size="14" lengthAdjust="spacing" textLength="31" x="200.5" y="390.9951">read</text><rect fill="#F1F1F1" height="12" style="stroke:#181818;stroke-width:1.5;" width="12" x="210" y="366"/><text fill="#000000" font-family="sans-serif" font-size="14" lengthAdjust="spacing" textLength="33" x="479.5" y="390.9951">write</text><rect fill="#F1F1F1" height="12" style="stroke:#181818;stroke-width:1.5;" width="12" x="490" y="366"/><text fill="#000000" font-family="sans-serif" font-size="14" lengthAdjust="spacing" textLength="77" x="528.5" y="390.9951">disconnect</text><rect fill="#F1F1F1" height="12" style="stroke:#181818;stroke-width:1.5;" width="12" x="561" y="366"/><text fill="#000000" font-family="sans-serif" font-size="14" lengthAdjust="spacing" textLength="95" x="377" y="390.9951">disconnected</text><rect fill="#F1F1F1" height="12" style="stroke:#181818;stroke-width:1.5;" width="12" x="418.5" y="366"/><!--entity buffer_circulaireC_IN--><g id="elem_buffer_circulaireC_IN"><rect fill="#F1F1F1" height="46.2969" rx="2.5" ry="2.5" style="stroke:#181818;stroke-width:0.5;" width="165" x="32.5" y="242"/><rect fill="#F1F1F1" height="10" style="stroke:#181818;stroke-width:0.5;" width="15" x="177.5" y="247"/><rect fill="#F1F1F1" height="2" style="stroke:#181818;stroke-width:0.5;" width="4" x="175.5" y="249"/><rect fill="#F1F1F1" height="2" style="stroke:#181818;stroke-width:0.5;" width="4" x="175.5" y="253"/><text fill="#000000" font-family="sans-serif" font-size="14" lengthAdjust="spacing" textLength="125" x="47.5" y="274.9951">buffer_circulaire IN</text></g><!--entity is_disconnectedC--><g id="elem_is_disconnectedC"><ellipse cx="543" cy="265" fill="#F1F1F1" rx="8" ry="8" style="stroke:#181818;stroke-width:0.5;"/><text fill="#000000" font-family="sans-serif" font-size="14" lengthAdjust="spacing" textLength="113" x="486.5" y="294.9951">is_disconnected</text></g><!--link writeC to buffer_circulaireA_IN--><g id="link_writeC_buffer_circulaireA_IN"><path d="M502.14,366.26 C506.89,362.7 513.7,357.79 520,354 C563.93,327.55 593.42,343.89 623,302 C660.57,248.8 660.21,166.48 638,140 C595.37,89.16 408.11,105.08 344,88 C329.56,84.15 319.8914,81.1552 305.7014,76.0952 " fill="none" id="writeC-to-buffer_circulaireA_IN" style="stroke:#181818;stroke-width:1.0;stroke-dasharray:7.0,7.0;"/><polygon fill="#181818" points="300.05,74.08,307.1837,80.8705,304.7595,75.7594,309.8707,73.3352,300.05,74.08" style="stroke:#181818;stroke-width:1.0;"/></g><!--link disconnectC to is_disconnectedA--><g id="link_disconnectC_is_disconnectedA"><path d="M573.21,369.68 C593.85,364.92 660.37,346.49 686,302 C734.12,218.47 683.1023,98.2706 667.5423,65.4806 " fill="none" id="disconnectC-to-is_disconnectedA" style="stroke:#181818;stroke-width:1.0;stroke-dasharray:7.0,7.0;"/><polygon fill="#181818" points="664.97,60.06,665.2147,69.9058,667.1136,64.5772,672.4422,66.4761,664.97,60.06" style="stroke:#181818;stroke-width:1.0;"/></g><!--link disconnectC to is_disconnectedC--><g id="link_disconnectC_is_disconnectedC"><path d="M565.79,365.71 C561.89,348.64 550.9472,300.7791 546.2172,280.0891 " fill="none" id="disconnectC-to-is_disconnectedC" style="stroke:#181818;stroke-width:1.0;"/><polygon fill="#181818" points="544.88,274.24,542.9864,283.9051,545.9943,279.1142,550.7852,282.1222,544.88,274.24" style="stroke:#181818;stroke-width:1.0;"/></g><!--link readC to buffer_circulaireC_IN--><g id="link_readC_buffer_circulaireC_IN"><path d="M211.17,365.98 C197.9,352.18 164.3998,317.3539 140.3298,292.3339 " fill="none" id="readC-to-buffer_circulaireC_IN" style="stroke:#181818;stroke-width:1.0;"/><polygon fill="#181818" points="136.17,288.01,139.527,297.2691,139.6365,291.6133,145.2923,291.7227,136.17,288.01" style="stroke:#181818;stroke-width:1.0;"/></g><!--link disconnectedC to is_disconnectedC--><g id="link_disconnectedC_is_disconnectedC"><path d="M430.68,365.95 C449.56,349.15 505.898,299.0189 529.258,278.2289 " fill="none" id="disconnectedC-to-is_disconnectedC" style="stroke:#181818;stroke-width:1.0;"/><polygon fill="#181818" points="533.74,274.24,524.3577,277.2354,530.005,277.5641,529.6763,283.2114,533.74,274.24" style="stroke:#181818;stroke-width:1.0;"/></g><!--link writeA to buffer_circulaireC_IN--><g id="link_writeA_buffer_circulaireC_IN"><path d="M286.98,164.07 C282.52,169.48 274.88,178.07 267,184 C236.02,207.31 202.7457,225.0398 172.1457,239.3398 " fill="none" id="writeA-to-buffer_circulaireC_IN" style="stroke:#181818;stroke-width:1.0;stroke-dasharray:7.0,7.0;"/><polygon fill="#181818" points="166.71,241.88,176.5571,241.6935,171.2398,239.7631,173.1701,234.4458,166.71,241.88" style="stroke:#181818;stroke-width:1.0;"/></g><!--link disconnectA to is_disconnectedC--><g id="link_disconnectA_is_disconnectedC"><path d="M562.04,164.06 C558.82,180.94 549.5711,229.4757 545.6511,250.0857 " fill="none" id="disconnectA-to-is_disconnectedC" style="stroke:#181818;stroke-width:1.0;stroke-dasharray:7.0,7.0;"/><polygon fill="#181818" points="544.53,255.98,550.1412,247.8859,545.4642,251.0681,542.2821,246.3911,544.53,255.98" style="stroke:#181818;stroke-width:1.0;"/></g><!--link disconnectA to is_disconnectedA--><g id="link_disconnectA_is_disconnectedA"><path d="M567.94,151.71 C583.87,134.64 629.9062,85.3164 649.2162,64.6264 " fill="none" id="disconnectA-to-is_disconnectedA" style="stroke:#181818;stroke-width:1.0;"/><polygon fill="#181818" points="653.31,60.24,644.245,64.0904,649.8985,63.8953,650.0935,69.5488,653.31,60.24" style="stroke:#181818;stroke-width:1.0;"/></g><!--link readA to buffer_circulaireA_IN--><g id="link_readA_buffer_circulaireA_IN"><path d="M244,151.98 C244,138.18 244,105.03 244,80.01 " fill="none" id="readA-to-buffer_circulaireA_IN" style="stroke:#181818;stroke-width:1.0;"/><polygon fill="#181818" points="244,74.01,240,83.01,244,79.01,248,83.01,244,74.01" style="stroke:#181818;stroke-width:1.0;"/></g><!--link disconnectedA to is_disconnectedA--><g id="link_disconnectedA_is_disconnectedA"><path d="M473.6,153.95 C500.69,139.21 612.9896,78.1175 646.6796,59.7875 " fill="none" id="disconnectedA-to-is_disconnectedA" style="stroke:#181818;stroke-width:1.0;"/><polygon fill="#181818" points="651.95,56.92,642.1327,57.7077,647.558,59.3096,645.9561,64.7349,651.95,56.92" style="stroke:#181818;stroke-width:1.0;"/></g><!--SRC=[fPDDRiGW38NtFeML_SmHAY6lPZDNYAZZg4Wp416YBghUVP8GgGDnsghDol0U_laWFdI2Xbc6rFARzLvkQ4TiQ8kprE07uFmD8QOm9OnYExFwbgWfjFVeacHn3KkrSoE7EJEdRFbQ7_cagvqoLrpD7Ev3yE8JlavzBx5b5tcwMHV5j9VhUcoduEMQIpcV9FQM1TtOxkjLcmry0lY55kKj5TUcQRpeErxqCo_wDI_w0o_w1oywvBNDTZw_w3S4p-Cjhlec2iFfj3CGPBIBfCu4PQDg2jYUhDfcbSHeRL9XK6eOo7-CsgQfspn8yG00]--></g></svg>