<?xml version="1.0" encoding="us-ascii" standalone="no"?><svg xmlns="http://www.w3.org/2000/svg" xmlns:xlink="http://www.w3.org/1999/xlink" contentStyleType="text/css" height="613px" preserveAspectRatio="none" style="width:1630px;height:613px;background:#FFFFFF;" version="1.1" viewBox="0 0 1630 613" width="1630px" zoomAndPan="magnify"><defs/><g><!--cluster Task1--><g id="cluster_Task1"><polygon fill="none" points="16,16,26,6,311,6,311,148,301,158,16,158,16,16" style="stroke:#181818;stroke-width:1.0;"/><line style="stroke:#181818;stroke-width:1.0;" x1="301" x2="311" y1="16" y2="6"/><line style="stroke:#181818;stroke-width:1.0;" x1="16" x2="301" y1="16" y2="16"/><line style="stroke:#181818;stroke-width:1.0;" x1="301" x2="301" y1="16" y2="158"/><text fill="#000000" font-family="sans-serif" font-size="14" font-weight="bold" lengthAdjust="spacing" textLength="126" x="96.5" y="31.9951">Task1 - Serveur</text></g><!--cluster Broker1--><g id="cluster_Broker1"><polygon fill="none" points="383,168,393,158,524,158,524,362,514,372,383,372,383,168" style="stroke:#181818;stroke-width:1.0;"/><line style="stroke:#181818;stroke-width:1.0;" x1="514" x2="524" y1="168" y2="158"/><line style="stroke:#181818;stroke-width:1.0;" x1="383" x2="514" y1="168" y2="168"/><line style="stroke:#181818;stroke-width:1.0;" x1="514" x2="514" y1="168" y2="372"/><text fill="#000000" font-family="sans-serif" font-size="14" font-weight="bold" lengthAdjust="spacing" textLength="63" x="418" y="183.9951">Broker1</text></g><!--cluster ChannelA--><g id="cluster_ChannelA"><polygon fill="none" points="595,222,605,212,1207,212,1207,362,1197,372,595,372,595,222" style="stroke:#181818;stroke-width:1.0;"/><line style="stroke:#181818;stroke-width:1.0;" x1="1197" x2="1207" y1="222" y2="212"/><line style="stroke:#181818;stroke-width:1.0;" x1="595" x2="1197" y1="222" y2="222"/><line style="stroke:#181818;stroke-width:1.0;" x1="1197" x2="1197" y1="222" y2="372"/><text fill="#000000" font-family="sans-serif" font-size="14" font-weight="bold" lengthAdjust="spacing" textLength="124" x="835" y="237.9951">Channel Accept</text></g><!--cluster ChannelC--><g id="cluster_ChannelC"><polygon fill="none" points="812,436,822,426,1435,426,1435,576,1425,586,812,586,812,436" style="stroke:#181818;stroke-width:1.0;"/><line style="stroke:#181818;stroke-width:1.0;" x1="1425" x2="1435" y1="436" y2="426"/><line style="stroke:#181818;stroke-width:1.0;" x1="812" x2="1425" y1="436" y2="436"/><line style="stroke:#181818;stroke-width:1.0;" x1="1425" x2="1425" y1="436" y2="586"/><text fill="#000000" font-family="sans-serif" font-size="14" font-weight="bold" lengthAdjust="spacing" textLength="135" x="1052" y="451.9951">Channel Connect</text></g><!--cluster Broker2--><g id="cluster_Broker2"><polygon fill="none" points="1277.5,168,1287.5,158,1419,158,1419,362,1409,372,1277.5,372,1277.5,168" style="stroke:#181818;stroke-width:1.0;"/><line style="stroke:#181818;stroke-width:1.0;" x1="1409" x2="1419" y1="168" y2="158"/><line style="stroke:#181818;stroke-width:1.0;" x1="1277.5" x2="1409" y1="168" y2="168"/><line style="stroke:#181818;stroke-width:1.0;" x1="1409" x2="1409" y1="168" y2="372"/><text fill="#000000" font-family="sans-serif" font-size="14" font-weight="bold" lengthAdjust="spacing" textLength="63" x="1312.75" y="183.9951">Broker2</text></g><!--cluster Task2--><g id="cluster_Task2"><polygon fill="none" points="1435,16,1445,6,1613,6,1613,148,1603,158,1435,158,1435,16" style="stroke:#181818;stroke-width:1.0;"/><line style="stroke:#181818;stroke-width:1.0;" x1="1603" x2="1613" y1="16" y2="6"/><line style="stroke:#181818;stroke-width:1.0;" x1="1435" x2="1603" y1="16" y2="16"/><line style="stroke:#181818;stroke-width:1.0;" x1="1603" x2="1603" y1="16" y2="158"/><text fill="#000000" font-family="sans-serif" font-size="14" font-weight="bold" lengthAdjust="spacing" textLength="108" x="1466" y="31.9951">Task2 - Client</text></g><text fill="#000000" font-family="sans-serif" font-size="14" lengthAdjust="spacing" textLength="69" x="258.5" y="176.9951">getBroker</text><rect fill="#F1F1F1" height="12" style="stroke:#181818;stroke-width:1.5;" width="12" x="287" y="152"/><!--entity Runnable1--><g id="elem_Runnable1"><ellipse cx="73" cy="51" fill="#F1F1F1" rx="8" ry="8" style="stroke:#181818;stroke-width:0.5;"/><text fill="#000000" font-family="sans-serif" font-size="14" lengthAdjust="spacing" textLength="66" x="40" y="80.9951">Runnable</text></g><text fill="#000000" font-family="sans-serif" font-size="14" lengthAdjust="spacing" textLength="47" x="482.5" y="136.6982">accept</text><rect fill="#F1F1F1" height="12" style="stroke:#181818;stroke-width:1.5;" width="12" x="500" y="152"/><text fill="#000000" font-family="sans-serif" font-size="14" lengthAdjust="spacing" textLength="57" x="449" y="390.9951">connect</text><rect fill="#F1F1F1" height="12" style="stroke:#181818;stroke-width:1.5;" width="12" x="471.5" y="366"/><text fill="#000000" font-family="sans-serif" font-size="14" lengthAdjust="spacing" textLength="31" x="856.5" y="390.9951">read</text><rect fill="#F1F1F1" height="12" style="stroke:#181818;stroke-width:1.5;" width="12" x="866" y="366"/><text fill="#000000" font-family="sans-serif" font-size="14" lengthAdjust="spacing" textLength="33" x="902.5" y="390.9951">write</text><rect fill="#F1F1F1" height="12" style="stroke:#181818;stroke-width:1.5;" width="12" x="913" y="366"/><text fill="#000000" font-family="sans-serif" font-size="14" lengthAdjust="spacing" textLength="77" x="951.5" y="390.9951">disconnect</text><rect fill="#F1F1F1" height="12" style="stroke:#181818;stroke-width:1.5;" width="12" x="984" y="366"/><text fill="#000000" font-family="sans-serif" font-size="14" lengthAdjust="spacing" textLength="95" x="1043" y="390.9951">disconnected</text><rect fill="#F1F1F1" height="12" style="stroke:#181818;stroke-width:1.5;" width="12" x="1084.5" y="366"/><!--entity buffer_circulaireA_IN--><g id="elem_buffer_circulaireA_IN"><rect fill="#F1F1F1" height="46.2969" rx="2.5" ry="2.5" style="stroke:#181818;stroke-width:0.5;" width="165" x="619.5" y="242"/><rect fill="#F1F1F1" height="10" style="stroke:#181818;stroke-width:0.5;" width="15" x="764.5" y="247"/><rect fill="#F1F1F1" height="2" style="stroke:#181818;stroke-width:0.5;" width="4" x="762.5" y="249"/><rect fill="#F1F1F1" height="2" style="stroke:#181818;stroke-width:0.5;" width="4" x="762.5" y="253"/><text fill="#000000" font-family="sans-serif" font-size="14" lengthAdjust="spacing" textLength="125" x="634.5" y="274.9951">buffer_circulaire IN</text></g><!--entity is_disconnectedA--><g id="elem_is_disconnectedA"><ellipse cx="1119" cy="265" fill="#F1F1F1" rx="8" ry="8" style="stroke:#181818;stroke-width:0.5;"/><text fill="#000000" font-family="sans-serif" font-size="14" lengthAdjust="spacing" textLength="113" x="1062.5" y="294.9951">is_disconnected</text></g><text fill="#000000" font-family="sans-serif" font-size="14" lengthAdjust="spacing" textLength="31" x="836.5" y="604.9951">read</text><rect fill="#F1F1F1" height="12" style="stroke:#181818;stroke-width:1.5;" width="12" x="846" y="580"/><text fill="#000000" font-family="sans-serif" font-size="14" lengthAdjust="spacing" textLength="33" x="882.5" y="604.9951">write</text><rect fill="#F1F1F1" height="12" style="stroke:#181818;stroke-width:1.5;" width="12" x="893" y="580"/><text fill="#000000" font-family="sans-serif" font-size="14" lengthAdjust="spacing" textLength="77" x="982.5" y="604.9951">disconnect</text><rect fill="#F1F1F1" height="12" style="stroke:#181818;stroke-width:1.5;" width="12" x="1015" y="580"/><text fill="#000000" font-family="sans-serif" font-size="14" lengthAdjust="spacing" textLength="95" x="1100" y="604.9951">disconnected</text><rect fill="#F1F1F1" height="12" style="stroke:#181818;stroke-width:1.5;" width="12" x="1141.5" y="580"/><!--entity buffer_circulaireC_IN--><g id="elem_buffer_circulaireC_IN"><rect fill="#F1F1F1" height="46.2969" rx="2.5" ry="2.5" style="stroke:#181818;stroke-width:0.5;" width="165" x="836.5" y="456"/><rect fill="#F1F1F1" height="10" style="stroke:#181818;stroke-width:0.5;" width="15" x="981.5" y="461"/><rect fill="#F1F1F1" height="2" style="stroke:#181818;stroke-width:0.5;" width="4" x="979.5" y="463"/><rect fill="#F1F1F1" height="2" style="stroke:#181818;stroke-width:0.5;" width="4" x="979.5" y="467"/><text fill="#000000" font-family="sans-serif" font-size="14" lengthAdjust="spacing" textLength="125" x="851.5" y="488.9951">buffer_circulaire IN</text></g><!--entity is_disconnectedC--><g id="elem_is_disconnectedC"><ellipse cx="1347" cy="479" fill="#F1F1F1" rx="8" ry="8" style="stroke:#181818;stroke-width:0.5;"/><text fill="#000000" font-family="sans-serif" font-size="14" lengthAdjust="spacing" textLength="113" x="1290.5" y="508.9951">is_disconnected</text></g><text fill="#000000" font-family="sans-serif" font-size="14" lengthAdjust="spacing" textLength="47" x="1301.5" y="136.6982">accept</text><rect fill="#F1F1F1" height="12" style="stroke:#181818;stroke-width:1.5;" width="12" x="1319" y="152"/><text fill="#000000" font-family="sans-serif" font-size="14" lengthAdjust="spacing" textLength="57" x="1267" y="390.9951">connect</text><rect fill="#F1F1F1" height="12" style="stroke:#181818;stroke-width:1.5;" width="12" x="1289.5" y="366"/><text fill="#000000" font-family="sans-serif" font-size="14" lengthAdjust="spacing" textLength="69" x="1532.5" y="176.9951">getBroker</text><rect fill="#F1F1F1" height="12" style="stroke:#181818;stroke-width:1.5;" width="12" x="1561" y="152"/><!--entity Runnable2--><g id="elem_Runnable2"><ellipse cx="1492" cy="51" fill="#F1F1F1" rx="8" ry="8" style="stroke:#181818;stroke-width:0.5;"/><text fill="#000000" font-family="sans-serif" font-size="14" lengthAdjust="spacing" textLength="66" x="1459" y="80.9951">Runnable</text></g><!--link PortBroker1 to Broker1--><g id="link_PortBroker1_Broker1"><path d="M299.12,162.49 C311.47,169.535 340.87,186.3125 372.2863,204.2413 C374.2498,205.3618 376.2212,206.4868 378.1968,207.6143 C379.1846,208.178 380.1734,208.7423 381.1628,209.307 C381.6576,209.5893 376.9413,206.8978 377.4363,207.1803 " fill="none" id="PortBroker1-to-Broker1" style="stroke:#181818;stroke-width:1.0;"/><polygon fill="#181818" points="382.6474,210.1542,376.8133,202.2192,378.3048,207.6759,372.8481,209.1674,382.6474,210.1542" style="stroke:#181818;stroke-width:1.0;"/></g><!--link accept1 to ChannelA--><g id="link_accept1_ChannelA"><path d="M512.21,159.21 C543.81,160.45 689.65,167.93 802,204 C806.705,205.51 811.452,207.1895 816.2008,208.9995 C818.5752,209.9044 820.9501,210.842 823.3204,211.8073 C823.4685,211.8676 818.0628,209.6576 818.2109,209.7182 " fill="none" id="accept1-to-ChannelA" style="stroke:#181818;stroke-width:1.0;"/><polygon fill="#181818" points="823.7647,211.9886,816.9476,204.8804,819.1365,210.0966,813.9203,212.2855,823.7647,211.9886" style="stroke:#181818;stroke-width:1.0;"/></g><!--link writeA to buffer_circulaireC_IN--><g id="link_writeA_buffer_circulaireC_IN"><path d="M919,378.06 C919,391.83 919,424.57 919,449.57 " fill="none" id="writeA-to-buffer_circulaireC_IN" style="stroke:#181818;stroke-width:1.0;stroke-dasharray:7.0,7.0;"/><polygon fill="#181818" points="919,455.57,923,446.57,919,450.57,915,446.57,919,455.57" style="stroke:#181818;stroke-width:1.0;"/></g><!--link writeC to buffer_circulaireA_IN--><g id="link_writeC_buffer_circulaireA_IN"><path d="M892.85,580.46 C875.32,567.5 826.01,530.83 820,524 C755.44,450.57 721.5947,341.7004 708.9447,293.8904 " fill="none" id="writeC-to-buffer_circulaireA_IN" style="stroke:#181818;stroke-width:1.0;stroke-dasharray:7.0,7.0;"/><polygon fill="#181818" points="707.41,288.09,705.8451,297.8137,708.6889,292.9237,713.579,295.7675,707.41,288.09" style="stroke:#181818;stroke-width:1.0;"/></g><!--link connect2 to ChannelC--><g id="link_connect2_ChannelC"><path d="M1289.38,377.51 C1278.04,385.245 1253.6075,401.905 1227.8363,419.4763 C1226.2255,420.5745 1224.6096,421.6762 1222.9913,422.7796 C1222.1822,423.3313 1221.3724,423.8833 1220.5625,424.4356 C1220.1575,424.7117 1219.7524,424.9879 1219.3474,425.264 C1219.1449,425.4021 1223.8997,422.1602 1223.6972,422.2983 " fill="none" id="connect2-to-ChannelC" style="stroke:#181818;stroke-width:1.0;"/><polygon fill="#181818" points="1218.7398,425.6783,1228.4292,423.9133,1222.871,422.8616,1223.9226,417.3034,1218.7398,425.6783" style="stroke:#181818;stroke-width:1.0;"/></g><!--link PortBroker2 to Broker2--><g id="link_PortBroker2_Broker2"><path d="M1560.77,161.7 C1546.05,168.09 1507.155,184.9675 1465.1013,203.2138 C1454.5878,207.7753 1443.877,212.4224 1433.2971,217.0126 C1430.6521,218.1601 1428.0153,219.3041 1425.3918,220.4423 C1424.0801,221.0114 1422.7717,221.5791 1421.4672,222.145 C1420.815,222.428 1425.6681,220.3225 1425.0179,220.6046 " fill="none" id="PortBroker2-to-Broker2" style="stroke:#181818;stroke-width:1.0;"/><polygon fill="#181818" points="1419.5136,222.9926,1429.3621,223.0801,1424.1005,221.0026,1426.1781,215.741,1419.5136,222.9926" style="stroke:#181818;stroke-width:1.0;"/></g><!--SRC=[fLFBReCm4BplLwou4wd-W4ZKfroYgkqTEMPfhL0R6TCUglvx3JOXFF9GouLTxtY77NQqAGXVHNDyGD5W4g8KNyX-KciJ_0RqJssiCwt39_z-jEP8Di3VAAP93rFQaIs597nkjHQ7YW9io1Bu0T0Tuz1aRAyq2YcfTk5AY9C9kpHQauo0c8mj-Rlm9rNMLsE2MMWp6yEIA0AkYwOaNrOv2iK-d5OBrKJY01dpIpWgvaZoZ3rOce_QQD8E3srPaisbihAjXBAKvRjzVsrHmTr-BhPgyYNVx72X4v_enECGAqBnQqBnsqBnkuNYVn2A_qCeVbseiADiRKVPhHrbwplQsOkTZCQyqNYb_5oNVSRkynbR-WpEpPgcsy5pCDYiEnjC0n3tVhFPheiCyN-l0hfr1JZDVjQPm_aiusSm-0K0]--></g></svg>